<svg xmlns="http://www.w3.org/2000/svg" data-name="Warstwa 1" viewBox="0 0 24 30" x="0px" y="0px"><title>Arrows</title><path d="M21.87,15.84l-5.5,6h0a.38.38,0,0,1-.13.09l0,0a.52.52,0,0,1-.4,0l0,0a.38.38,0,0,1-.13-.09h0l-5.5-6a.51.51,0,0,1,0-.71.5.5,0,0,1,.71,0l4.63,5.05V6.5A3.5,3.5,0,0,0,12,3H2.5a.5.5,0,0,1,0-1H12a4.51,4.51,0,0,1,4.5,4.5V20.21l4.63-5.05a.5.5,0,0,1,.71,0A.51.51,0,0,1,21.87,15.84Z"/><text x="0" y="39" fill="#000000" font-size="5px" font-weight="bold" font-family="'Helvetica Neue', Helvetica, Arial-Unicode, Arial, Sans-serif">Created by Martin</text><text x="0" y="44" fill="#000000" font-size="5px" font-weight="bold" font-family="'Helvetica Neue', Helvetica, Arial-Unicode, Arial, Sans-serif">from the Noun Project</text></svg>